<?xml version="1.0" encoding="UTF-8" standalone="no"?>
<!-- Generator: Adobe Illustrator 12.0.0, SVG Export Plug-In . SVG Version: 6.00 Build 51448)  -->

<svg
   xmlns:dc="http://purl.org/dc/elements/1.1/"
   xmlns:cc="http://creativecommons.org/ns#"
   xmlns:rdf="http://www.w3.org/1999/02/22-rdf-syntax-ns#"
   xmlns:svg="http://www.w3.org/2000/svg"
   xmlns="http://www.w3.org/2000/svg"
   xmlns:sodipodi="http://sodipodi.sourceforge.net/DTD/sodipodi-0.dtd"
   xmlns:inkscape="http://www.inkscape.org/namespaces/inkscape"
   version="1.1"
   id="Layer_1"
   width="283.2"
   height="204.721"
   viewBox="0 0 283.2 204.721"
   overflow="visible"
   enable-background="new 0 0 283.2 204.721"
   xml:space="preserve"
   inkscape:version="0.47 r22583"
   sodipodi:docname="FossNepalLogo_.svg"
   inkscape:export-filename="/Users/anks/Pictures/FossNepalLogo.png"
   inkscape:export-xdpi="2542.3501"
   inkscape:export-ydpi="2542.3501"><metadata
   id="metadata101"><rdf:RDF><cc:Work
       rdf:about=""><dc:format>image/svg+xml</dc:format><dc:type
         rdf:resource="http://purl.org/dc/dcmitype/StillImage" /><dc:title></dc:title></cc:Work></rdf:RDF></metadata><defs
   id="defs99"><inkscape:perspective
   sodipodi:type="inkscape:persp3d"
   inkscape:vp_x="0 : 102.3605 : 1"
   inkscape:vp_y="0 : 1000 : 0"
   inkscape:vp_z="283.20001 : 102.3605 : 1"
   inkscape:persp3d-origin="141.60001 : 68.240331 : 1"
   id="perspective103" />
	
	

		
		
		
		
		
		
		
		
		
		
		
		
		
		
		
		
		
		
		
		
	</defs><sodipodi:namedview
   pagecolor="#ffffff"
   bordercolor="#666666"
   borderopacity="1"
   objecttolerance="10"
   gridtolerance="10"
   guidetolerance="10"
   inkscape:pageopacity="0"
   inkscape:pageshadow="2"
   inkscape:window-width="1280"
   inkscape:window-height="752"
   id="namedview97"
   showgrid="false"
   inkscape:zoom="1.1527885"
   inkscape:cx="141.60001"
   inkscape:cy="102.3605"
   inkscape:window-x="0"
   inkscape:window-y="0"
   inkscape:window-maximized="0"
   inkscape:current-layer="Layer_1" />
<path
   clip-rule="evenodd"
   d="M 135.12,0 C 114.828,0.588 113.488,20.127 114.72,42.24 101.695,36.018 85.167,40.292 76.32,48 69.77,53.707 64.564,62.045 63.84,72 c -1.16,15.939 5.44,26.552 14.88,33.601 9.341,6.974 25.637,9.13 37.92,2.88 10.458,-5.321 18.763,-15.586 19.92,-28.561 1.402,-15.72 -5.041,-25.899 -14.4,-33.6 0.663,-13.501 -2.508,-29.061 4.8,-35.76 4.143,-3.798 12.996,-5.184 19.68,-1.68 4.164,2.183 6.724,7.074 7.199,12.48 0.273,3.105 -1.141,7.259 0,11.76 0.704,2.776 4.372,3.386 4.08,7.68 -0.372,1.227 -3.319,-0.12 -4.08,0.72 -0.312,1.689 1.283,2.919 2.16,3.6 1.139,0.883 2.58,1.586 4.801,1.2 0.013,-9.181 0.822,-18.357 0.239,-25.92 C 160.116,8.402 151.066,0.83 139.2,0 c 48,0 96,0 144,0 0,27.44 0,54.88 0,82.32 C 282.218,67.977 268.812,63.785 257.761,58.8 253.005,56.655 245.729,53.279 246,48 c 0.356,-6.902 12.905,-5.837 19.2,-4.08 4.545,1.269 7.842,3.458 10.561,5.28 0,-5.36 0,-10.72 0,-16.08 -21.426,-6.792 -53.292,-3.274 -51.84,21.6 0.964,16.535 14.651,22.159 27.359,28.08 4.061,1.892 9.76,4.854 10.08,8.16 0.52,5.361 -5.755,7.602 -10.56,7.92 -12.876,0.853 -24.267,-5.773 -30.721,-12.24 1.723,-17.419 -12.867,-22.511 -24.72,-27.84 -4.755,-2.138 -12.579,-4.777 -12.24,-10.8 0.473,-8.401 17.059,-5.013 22.8,-2.64 2.626,1.085 4.833,2.273 6.961,3.84 0,-5.36 0,-10.72 0,-16.08 -20.451,-6.521 -50.001,-3.382 -51.841,17.52 -1.558,17.702 12.138,25.028 24.24,30.72 4.566,2.147 12.871,5.015 13.2,9.84 0.625,9.167 -14.876,7.979 -21.84,6.24 -8.535,-2.132 -14.954,-6.103 -19.681,-10.56 1.773,7.267 3.463,14.617 5.04,22.08 24.077,5.708 55.596,2.978 58.08,-20.88 1.784,6.776 3.333,13.788 4.801,20.88 24.789,5.796 57.066,2.948 58.319,-22.8 0,39.521 0,79.04 0,118.561 -94.399,0 -188.8,0 -283.2,0 C 0,136.48 0,68.24 0,0 45.04,0 90.08,0 135.12,0 z M 6.48,71.52 c 0,14.668 1.501,28.902 -4.08,36.48 -0.726,0.985 -2.077,2.031 -1.68,2.641 12.24,0 24.48,0 36.72,0 -1.031,-1.775 -2.677,-3.21 -3.84,-5.28 -3.894,-6.934 -2.342,-18.125 -2.64,-28.56 8.473,-0.048 18.074,-0.879 22.32,2.88 0.607,0.537 1.062,1.738 1.68,1.44 0,-6.32 0,-12.64 0,-18.96 -7.92,-0.16 -16.479,0.32 -24,-0.24 0.156,-4.884 -0.315,-10.395 0.24,-14.88 10.669,-0.222 22.531,-0.486 28.32,3.6 0.721,0.509 1.525,1.505 2.16,1.2 0,-6.56 0,-13.12 0,-19.68 -20.24,0.16 -41.12,-0.32 -60.96,0.24 7.761,7.095 5.76,23.368 5.76,39.119 z m -2.16,53.041 c 0,14.479 0,28.96 0,43.439 44.48,0 88.96,0 133.44,0 0,-9.92 0,-19.84 0,-29.76 1.84,0 3.68,0 5.52,0 0.549,0.411 0.088,1.832 0.24,2.64 1.433,-1.613 3.893,-3.219 7.92,-2.64 10.339,1.486 11.506,19.747 1.92,23.04 -2.813,0.966 -6.706,0.479 -9.84,-0.96 0,2.56 0,5.12 0,7.68 44.08,0 88.16,0 132.24,0 0,-14.72 0,-29.439 0,-44.16 -90.4,0 -180.8,0 -271.201,0 -0.279,0.041 -0.26,0.38 -0.239,0.721 z m 143.281,31.919 c 6.466,0.773 9.628,-7.987 5.279,-11.76 -2.55,-2.213 -8.302,-1.67 -9.359,1.92 -0.672,2.28 0.503,4.47 0,7.199 1.523,1.427 2.167,2.413 4.08,2.641 z"
   id="path7"
   style="fill:#ffffff;fill-rule:evenodd" /><path
   clip-rule="evenodd"
   d="m 283.2,82.32 c 0,1.28 0,2.56 0,3.84 -1.253,25.748 -33.53,28.596 -58.319,22.8 -1.468,-7.092 -3.017,-14.104 -4.801,-20.88 -2.484,23.857 -34.003,26.588 -58.08,20.88 -1.577,-7.462 -3.267,-14.813 -5.04,-22.08 4.727,4.458 11.146,8.428 19.681,10.56 6.964,1.739 22.465,2.927 21.84,-6.24 -0.329,-4.825 -8.634,-7.692 -13.2,-9.84 -12.103,-5.692 -25.798,-13.019 -24.24,-30.72 1.84,-20.902 31.39,-24.042 51.841,-17.52 0,5.36 0,10.72 0,16.08 -2.128,-1.567 -4.335,-2.755 -6.961,-3.84 -5.741,-2.373 -22.327,-5.761 -22.8,2.64 -0.339,6.023 7.485,8.662 12.24,10.8 11.853,5.329 26.442,10.42 24.72,27.84 6.454,6.467 17.845,13.093 30.721,12.24 4.805,-0.319 11.079,-2.559 10.56,-7.92 -0.32,-3.305 -6.02,-6.268 -10.08,-8.16 -12.708,-5.921 -26.396,-11.545 -27.359,-28.08 -1.452,-24.875 30.414,-28.392 51.84,-21.6 0,5.36 0,10.72 0,16.08 -2.719,-1.822 -6.016,-4.011 -10.561,-5.28 -6.295,-1.757 -18.844,-2.822 -19.2,4.08 -0.271,5.279 7.005,8.655 11.761,10.8 11.05,4.985 24.455,9.177 25.437,23.52 z"
   id="path9"
   style="fill:#2b5a9b;fill-rule:evenodd" /><path
   clip-rule="evenodd"
   d="m 0.72,32.4 c 19.84,-0.56 40.72,-0.08 60.96,-0.24 0,6.56 0,13.12 0,19.68 -0.635,0.305 -1.439,-0.691 -2.16,-1.2 -5.789,-4.086 -17.65,-3.822 -28.32,-3.6 -0.555,4.485 -0.084,9.996 -0.24,14.88 7.521,0.56 16.08,0.08 24,0.24 0,6.32 0,12.64 0,18.96 -0.618,0.298 -1.073,-0.903 -1.68,-1.44 -4.246,-3.759 -13.848,-2.928 -22.32,-2.88 0.298,10.435 -1.253,21.626 2.64,28.56 1.163,2.07 2.809,3.505 3.84,5.28 -12.24,0 -24.48,0 -36.72,0 -0.397,-0.609 0.954,-1.655 1.68,-2.641 5.581,-7.578 4.08,-21.812 4.08,-36.48 0,-15.75 2.001,-32.023 -5.76,-39.119 z"
   id="path11"
   style="fill:#2b5a9b;fill-rule:evenodd" /><path
   clip-rule="evenodd"
   d="m 96.48,42.48 c 2.32,0 4.64,0 6.96,0 -0.821,2.459 -2.243,4.318 -3.36,6.48 -1.364,-1.996 -2.71,-4.009 -3.6,-6.48 z"
   id="path13"
   style="fill:#ffffff;fill-rule:evenodd" /><path
   clip-rule="evenodd"
   d="m 97.2,51.6 c 8.815,-0.724 16.587,2.437 21.36,6.72 5.677,5.093 10.501,13.019 9.6,24.72 -1.219,15.82 -15.051,26.721 -31.68,25.44 C 83.028,107.444 72.825,96.554 71.28,83.52 70.289,75.156 73.34,67.819 76.08,63.84 80.206,57.848 87.097,52.43 97.2,51.6 z m 14.88,4.08 c -2.543,3.536 -5.35,6.81 -7.68,10.56 1.419,0.1 1.692,1.347 2.88,1.68 2.761,-3.399 6.043,-6.276 8.64,-9.84 -1.42,-0.66 -2.337,-1.822 -3.84,-2.4 z m 5.04,4.08 c -2.681,3.398 -6.153,6.007 -8.64,9.6 3.107,1.853 4.562,5.357 6.24,8.64 3.531,-1.669 7.452,-2.948 11.04,-4.56 -1.612,-5.828 -3.96,-10.92 -8.64,-13.68 z m -26.4,23.52 c 2.793,7.614 14.28,7.869 17.52,0.48 3.407,-7.771 -3.356,-14.694 -10.8,-13.2 -5.28,1.06 -8.89,6.803 -6.72,12.72 z M 86.4,95.52 c 0.713,-0.714 4.591,-4.059 4.56,-4.8 -0.029,-0.689 -3.095,-2.94 -3.6,-3.6 -1.411,-1.843 -1.718,-3.033 -2.4,-5.04 -4.033,1.167 -7.475,2.925 -11.28,4.32 1.237,6.202 4.106,10.773 8.4,13.92 1.486,-1.512 2.488,-2.967 4.32,-4.8 z m -3.12,6.24 c 1.387,0.693 2.316,1.843 3.84,2.4 2.847,-3.233 5.245,-6.915 7.92,-10.32 -1.171,-0.429 -2.029,-1.171 -2.88,-1.92 -2.876,3.364 -5.986,6.495 -8.88,9.84 z"
   id="path15"
   style="fill:#ffffff;fill-rule:evenodd" /><path
   clip-rule="evenodd"
   d="m 115.92,58.08 c -2.597,3.563 -5.879,6.441 -8.64,9.84 -1.188,-0.333 -1.46,-1.58 -2.88,-1.68 2.33,-3.75 5.136,-7.024 7.68,-10.56 1.503,0.578 2.42,1.74 3.84,2.4 z"
   id="path17"
   style="fill-rule:evenodd" /><path
   clip-rule="evenodd"
   d="m 125.76,73.44 c -3.588,1.612 -7.509,2.891 -11.04,4.56 -1.678,-3.282 -3.133,-6.787 -6.24,-8.64 2.487,-3.593 5.958,-6.202 8.64,-9.6 4.68,2.76 7.028,7.852 8.64,13.68 z"
   id="path19"
   style="fill-rule:evenodd" /><path
   clip-rule="evenodd"
   d="m 97.44,70.56 c 7.443,-1.494 14.207,5.429 10.8,13.2 -3.24,7.389 -14.727,7.134 -17.52,-0.48 -2.17,-5.917 1.44,-11.66 6.72,-12.72 z m -0.96,9.12 c -0.688,6.689 9.038,2.9 5.76,-1.68 -0.334,-0.467 -1.526,-1.13 -2.88,-0.96 -1.944,0.246 -2.721,1.101 -2.88,2.64 z"
   id="path21"
   style="fill-rule:evenodd" /><path
   clip-rule="evenodd"
   d="m 99.36,77.04 c 1.354,-0.17 2.545,0.493 2.88,0.96 3.278,4.581 -6.448,8.369 -5.76,1.68 0.159,-1.539 0.936,-2.394 2.88,-2.64 z"
   id="path23"
   style="fill:#ffffff;fill-rule:evenodd" /><path
   clip-rule="evenodd"
   d="m 82.08,100.32 c -4.293,-3.146 -7.163,-7.718 -8.4,-13.92 3.805,-1.396 7.247,-3.153 11.28,-4.32 0.683,2.007 0.99,3.197 2.4,5.04 0.504,0.66 3.57,2.911 3.6,3.6 0.032,0.741 -3.846,4.086 -4.56,4.8 -1.832,1.833 -2.834,3.288 -4.32,4.8 z"
   id="path25"
   style="fill-rule:evenodd" /><path
   clip-rule="evenodd"
   d="m 92.16,91.92 c 0.851,0.749 1.709,1.491 2.88,1.92 -2.675,3.405 -5.073,7.086 -7.92,10.32 -1.523,-0.557 -2.453,-1.707 -3.84,-2.4 2.894,-3.345 6.004,-6.476 8.88,-9.84 z"
   id="path27"
   style="fill-rule:evenodd" /><path
   clip-rule="evenodd"
   d="m 4.56,123.84 c 90.4,0 180.8,0 271.201,0 0,14.721 0,29.44 0,44.16 -44.08,0 -88.16,0 -132.24,0 0,-2.56 0,-5.12 0,-7.68 3.134,1.438 7.027,1.926 9.84,0.96 9.586,-3.293 8.419,-21.554 -1.92,-23.04 -4.027,-0.579 -6.487,1.026 -7.92,2.64 -0.152,-0.808 0.309,-2.229 -0.24,-2.64 -1.84,0 -3.68,0 -5.52,0 0,9.92 0,19.84 0,29.76 -44.48,0 -88.96,0 -133.44,0 0,-14.479 0,-28.96 0,-43.439 -0.022,-0.341 -0.041,-0.68 0.239,-0.721 z m 235.201,6.96 c -1.762,1.119 -4.159,1.602 -5.521,3.12 0,9.36 0,18.721 0,28.08 1.862,-0.138 4.29,0.29 5.76,-0.239 -0.159,-10.24 0.32,-21.12 -0.239,-30.961 z M 47.52,136.32 c -0.79,-1.243 -2.27,-4.176 -3.36,-4.561 -2.504,-0.881 -4.967,0.638 -7.92,0 0,10.08 0,20.16 0,30.24 2.08,0 4.16,0 6.24,0 0,-7.359 0,-14.72 0,-22.08 4.881,7.119 9.21,14.791 13.92,22.08 2.08,0 4.16,0 6.24,0 0,-10.08 0,-20.16 0,-30.24 -2,0 -4,0 -6,0 0,6.16 0,12.32 0,18.48 -2.773,-3.793 -6.155,-9.256 -9.12,-13.919 z m 158.64,5.76 c -2.585,-5.126 -12.176,-5.699 -17.04,-2.16 0.448,1.232 1.232,2.128 1.681,3.36 3.617,-2.177 10.827,-2.021 10.319,3.84 -4.122,-2.316 -11.176,-1.103 -13.439,1.44 -4.625,5.196 -0.979,13.265 6,13.439 2.602,0.065 4.668,-0.726 7.439,-1.92 0.175,0.546 -0.432,1.873 0.48,1.681 1.76,0 3.52,0 5.28,0 -1.132,-6.916 1.842,-14.601 -0.72,-19.68 z M 103.2,138 c -5.756,-0.706 -9.826,1.309 -12,4.801 -5.931,9.526 1.477,20.921 12.24,19.439 2.55,-0.351 4.138,-1.42 6,-3.6 -1.552,-0.688 -2.359,-2.121 -4.08,-2.641 -2.933,2.782 -10.219,1.485 -10.08,-3.12 5.603,-0.156 11.836,0.316 17.04,-0.239 -0.48,-7.616 -2.355,-13.81 -9.12,-14.64 z"
   id="path29"
   style="fill:#2b5a9b;fill-rule:evenodd" /><path
   clip-rule="evenodd"
   d="m 240,161.761 c -1.47,0.529 -3.897,0.102 -5.76,0.239 0,-9.359 0,-18.72 0,-28.08 1.361,-1.519 3.759,-2.001 5.521,-3.12 0.559,9.841 0.08,20.721 0.239,30.961 z"
   id="path31"
   style="fill:#ffffff;fill-rule:evenodd" /><path
   clip-rule="evenodd"
   d="m 56.64,150.24 c 0,-6.16 0,-12.32 0,-18.48 2,0 4,0 6,0 0,10.08 0,20.16 0,30.24 -2.08,0 -4.16,0 -6.24,0 -4.71,-7.289 -9.039,-14.961 -13.92,-22.08 0,7.36 0,14.721 0,22.08 -2.08,0 -4.16,0 -6.24,0 0,-10.08 0,-20.16 0,-30.24 2.953,0.638 5.416,-0.881 7.92,0 1.09,0.385 2.57,3.317 3.36,4.561 2.965,4.662 6.347,10.125 9.12,13.919 z"
   id="path33"
   style="fill:#ffffff;fill-rule:evenodd" /><path
   clip-rule="evenodd"
   d="m 206.881,161.761 c -1.761,0 -3.521,0 -5.28,0 -0.912,0.192 -0.306,-1.135 -0.48,-1.681 -2.771,1.194 -4.838,1.985 -7.439,1.92 -6.979,-0.175 -10.625,-8.243 -6,-13.439 2.264,-2.543 9.317,-3.757 13.439,-1.44 0.508,-5.861 -6.702,-6.017 -10.319,-3.84 -0.448,-1.232 -1.232,-2.128 -1.681,-3.36 4.864,-3.539 14.455,-2.966 17.04,2.16 2.561,5.078 -0.413,12.763 0.72,19.68 z m -15.36,-7.441 c 0.516,3.808 7.069,3.192 9.6,1.2 -0.119,-1.32 0.265,-3.145 -0.239,-4.08 -3.186,-2.601 -9.926,-1.289 -9.361,2.88 z"
   id="path35"
   style="fill:#ffffff;fill-rule:evenodd" /><path
   clip-rule="evenodd"
   d="m 112.32,152.641 c -5.204,0.556 -11.437,0.083 -17.04,0.239 -0.139,4.605 7.147,5.902 10.08,3.12 1.721,0.52 2.528,1.952 4.08,2.641 -1.862,2.18 -3.45,3.249 -6,3.6 -10.764,1.481 -18.171,-9.913 -12.24,-19.439 2.174,-3.492 6.244,-5.507 12,-4.801 6.765,0.829 8.64,7.023 9.12,14.64 z m -17.04,-4.08 c 3.76,0 7.52,0 11.28,0 0.851,-7.935 -12.036,-7.671 -11.28,0 z"
   id="path37"
   style="fill:#ffffff;fill-rule:evenodd" /><path
   clip-rule="evenodd"
   d="m 106.56,148.561 c -3.76,0 -7.52,0 -11.28,0 -0.756,-7.671 12.131,-7.935 11.28,0 z"
   id="path39"
   style="fill:#2b5a9b;fill-rule:evenodd" /><path
   clip-rule="evenodd"
   d="m 143.521,153.84 c 0.503,-2.729 -0.672,-4.919 0,-7.199 1.058,-3.59 6.81,-4.133 9.359,-1.92 4.349,3.772 1.187,12.533 -5.279,11.76 -1.913,-0.229 -2.557,-1.215 -4.08,-2.641 z"
   id="path41"
   style="fill:#2b5a9b;fill-rule:evenodd" /><path
   clip-rule="evenodd"
   d="m 200.881,151.44 c 0.504,0.936 0.12,2.76 0.239,4.08 -2.53,1.992 -9.084,2.607 -9.6,-1.2 -0.564,-4.169 6.176,-5.481 9.361,-2.88 z"
   id="path43"
   style="fill:#2b5a9b;fill-rule:evenodd" /><path
   clip-rule="evenodd"
   d="m 135.12,0 c 1.36,0 2.72,0 4.08,0 11.866,0.83 20.916,8.402 21.84,20.4 0.583,7.563 -0.227,16.739 -0.239,25.92 -2.221,0.386 -3.662,-0.317 -4.801,-1.2 -0.877,-0.681 -2.472,-1.911 -2.16,-3.6 0.761,-0.84 3.708,0.507 4.08,-0.72 0.292,-4.294 -3.376,-4.904 -4.08,-7.68 -1.141,-4.501 0.273,-8.655 0,-11.76 -0.476,-5.406 -3.035,-10.297 -7.199,-12.48 -6.684,-3.503 -15.537,-2.118 -19.68,1.68 -7.308,6.699 -4.137,22.259 -4.8,35.76 9.359,7.701 15.802,17.88 14.4,33.6 -1.157,12.975 -9.462,23.239 -19.92,28.561 -12.283,6.25 -28.579,4.094 -37.92,-2.88 C 69.28,98.552 62.68,87.939 63.84,72 64.564,62.045 69.77,53.707 76.32,48 85.167,40.292 101.695,36.019 114.72,42.24 113.488,20.127 114.828,0.588 135.12,0 z m -35.04,48.96 c 1.118,-2.162 2.539,-4.021 3.36,-6.48 -2.32,0 -4.64,0 -6.96,0 0.89,2.471 2.236,4.484 3.6,6.48 z m -24,14.88 c -2.74,3.979 -5.791,11.315 -4.8,19.68 1.544,13.035 11.748,23.924 25.2,24.96 16.629,1.28 30.461,-9.621 31.68,-25.44 0.901,-11.701 -3.923,-19.626 -9.6,-24.72 C 113.787,54.037 106.015,50.876 97.2,51.6 87.097,52.43 80.206,57.848 76.08,63.84 z"
   id="path45"
   style="fill:#2b5a9b;fill-rule:evenodd" /><g
   id="g47">
		<path
   style="fill-rule:evenodd"
   id="path49"
   d="m 72.123,170.738 c 7.363,-0.003 9.85,4.871 12.72,9.36 -3.204,-1.446 -4.126,-5.376 -8.16,-6 -0.997,-0.154 -2.014,0.111 -3.36,0 -0.247,-1.273 -0.899,-2.141 -1.2,-3.36 z"
   clip-rule="evenodd" />
		<path
   style="fill-rule:evenodd"
   id="path51"
   d="m 5.882,180.339 c 29.875,0 63.131,0 94.32,0 8.466,0 18.204,-0.727 27.36,0 1.661,0.132 2.974,-0.338 2.64,1.439 -0.376,2.005 -3.466,0.489 -5.76,0.96 1.563,4.397 0.474,6.485 -1.44,8.88 -0.771,0.966 -2.783,2.271 -2.88,3.12 -0.153,1.335 2.308,3.772 3.36,5.04 1.347,1.623 3.442,2.759 3.12,4.801 -0.24,0 -0.48,0 -0.72,0 -1.649,-2.388 -4.083,-4.727 -6.24,-7.2 -1.836,-2.105 -5.225,-4.824 -3.36,-8.4 1.185,-0.335 2.806,-0.233 4.32,-0.24 1.935,-0.747 2.066,-4.239 0.72,-5.76 -3.779,-0.541 -8.546,-0.094 -12.72,-0.24 0,7.28 0,14.561 0,21.841 -0.16,0 -0.32,0 -0.48,0 -2.317,-1.283 -2.771,-4.429 -2.4,-8.4 -3.794,3.839 -13.569,1.464 -12.72,-5.76 4.554,0.634 6.029,-5.88 2.64,-7.681 -3.2,0 -6.4,0 -9.6,0 0,7.28 0,14.561 0,21.841 -0.08,0 -0.16,0 -0.24,0 -2.349,-1.411 -3.125,-4.396 -2.64,-8.641 -5.241,4.193 -13.909,-0.085 -11.76,-6.24 1.326,-3.797 9.239,-5.09 11.76,-1.199 0,-1.841 0,-3.681 0,-5.521 -6.16,-0.56 -13.36,-0.08 -19.92,-0.24 -0.559,2.801 -0.081,6.64 -0.24,9.841 -5.497,-0.83 -10.868,0.96 -10.32,5.52 0.621,5.173 9.029,3.832 12.24,1.2 0.986,0.453 1.366,1.514 1.92,2.399 -1.046,1.754 -3.569,2.031 -5.52,2.881 -1.2,0 -2.4,0 -3.6,0 -1.651,-0.845 -3.083,-1.09 -4.32,-2.16 -5.208,-4.507 -2.749,-15.772 6.24,-13.44 0.558,-1.522 0.082,-4.078 0.24,-6 -3.76,-0.56 -8.56,-0.08 -12.72,-0.24 0,2 0,4 0,6 0.727,0.08 2.001,-1.354 3.84,-0.96 0,1.04 0,2.08 0,3.12 -1.741,0.259 -3.02,0.98 -3.84,2.16 0,3.84 0,7.68 0,11.521 -0.16,0 -0.32,0 -0.48,0 -2.711,-1.29 -2.596,-5.404 -2.4,-9.601 -7.449,1.885 -11.215,-3.733 -9.84,-12.24 -2.48,0 -4.96,0 -7.44,0 -0.56,6.801 -0.08,14.641 -0.24,21.841 -0.08,0 -0.16,0 -0.24,0 -3.398,-1.162 -2.639,-6.481 -2.64,-11.04 -2.108,0.723 -7.379,0.796 -8.64,-1.44 -0.789,0.811 -1.872,1.328 -2.4,2.4 -0.198,2.899 7.267,7.55 6.24,10.08 -0.16,0 -0.32,0 -0.48,0 -1.636,-2.439 -4.129,-4.589 -6.24,-6.96 -1.846,-2.074 -4.825,-4.857 -3.6,-8.4 0.887,-0.793 2.979,-0.382 4.56,-0.48 2.11,-0.867 1.945,-4.752 0.24,-6 -2.56,0 -5.12,0 -7.68,0 0,-0.803 0,-1.602 0,-2.402 z m 10.8,10.08 c 4.727,3.553 8.792,-1.231 7.2,-7.681 -2.24,0 -4.48,0 -6.72,0 0.924,2.405 0.955,5.842 -0.48,7.681 z m 20.64,-7.681 c 0.331,4.323 -1.203,9.958 2.4,10.561 4.689,0.784 4.972,-4.984 4.56,-10.561 -2.32,0 -4.639,0 -6.96,0 z m 58.08,10.321 c 0.611,2.394 3.139,3.476 5.28,3.12 4.667,-0.774 5.484,-7.627 5.04,-13.44 -2.16,0 -4.32,0 -6.48,0 2.329,4.104 0.128,9.587 -3.84,10.32 z m -22.08,0.96 c 3.55,2.58 8.768,-0.596 9.6,-3.84 -3.339,-2.68 -9.297,-0.21 -9.6,3.84 z"
   clip-rule="evenodd" />
		<path
   style="fill-rule:evenodd"
   id="path53"
   d="m 274.443,180.339 c 0,0.8 0,1.6 0,2.399 -1.521,0 -3.04,0 -4.561,0 -0.56,6.801 -0.08,14.641 -0.24,21.841 -0.16,0 -0.319,0 -0.479,0 -0.737,-1.104 -1.903,-1.777 -2.641,-2.881 0,-6.319 0,-12.64 0,-18.96 -2.239,0 -4.479,0 -6.72,0 -0.56,6.801 -0.08,14.641 -0.24,21.841 -0.159,0 -0.319,0 -0.479,0 -3.978,-1.783 -2.323,-9.198 -2.641,-14.641 -6.208,-0.106 -11.415,-0.753 -11.52,3.84 -0.046,2.02 1.767,3.807 3.12,5.521 1.218,1.542 3.901,4.068 2.88,5.28 -0.16,0 -0.32,0 -0.48,0 -1.622,-3.88 -7.086,-6.199 -7.68,-10.801 -0.895,-6.932 5.758,-7.229 13.44,-6.72 0.556,-0.964 0.083,-2.957 0.239,-4.32 -6.8,0 -13.6,0 -20.399,0 0,7.28 0,14.561 0,21.841 -0.16,0 -0.32,0 -0.48,0 -2.852,-1.309 -2.526,-5.794 -2.399,-10.08 -2.393,0.729 -5.205,3.114 -8.16,4.08 -0.291,-0.75 -0.582,-1.498 -0.96,-2.16 2.195,-2.284 5.498,-3.462 8.399,-5.04 -1.206,-4.169 -6.675,-3.618 -9.12,-0.96 -0.836,-0.204 -0.896,-1.184 -1.199,-1.92 -0.551,0.489 -0.087,1.993 -0.24,2.88 -2.72,0 -5.44,0 -8.16,0 -0.252,1.908 0.546,4.865 -0.479,6 -2.76,-1.246 -4.098,-4.905 -4.08,-8.16 2.582,-1.817 8.189,-0.61 12.239,-0.96 1.571,-3.471 10.236,-3.361 11.761,0.72 0,-2 0,-4 0,-6 -9.921,-0.56 -20.88,-0.08 -31.2,-0.24 0,7.28 0,14.561 0,21.841 -0.08,0 -0.16,0 -0.24,0 -4.098,-1.583 -2.253,-9.107 -2.64,-14.4 -5.104,-0.33 -12.043,-1.6 -11.521,4.08 0.381,4.133 7.68,8.302 5.76,10.32 -0.08,0 -0.159,0 -0.239,0 -1.636,-3.6 -6.84,-6.034 -7.681,-10.08 -1.577,-7.594 5.649,-8.014 13.44,-7.44 0.556,-0.964 0.083,-2.957 0.24,-4.32 -6.88,0 -13.761,0 -20.641,0 0,7.28 0,14.561 0,21.841 -0.08,0 -0.16,0 -0.239,0 -2.35,-1.411 -3.125,-4.396 -2.641,-8.641 -3.676,2.747 -10.896,2.04 -11.52,-2.88 -2.19,1.662 -7.669,1.205 -8.88,-0.96 -1.004,0.517 -1.284,1.757 -2.641,1.92 0.231,1.981 1.74,3.614 3.36,5.521 1.184,1.392 4.144,3.74 3.12,5.04 -0.16,0 -0.32,0 -0.48,0 -1.762,-2.307 -4.003,-4.44 -6,-6.721 -1.831,-2.091 -4.746,-4.474 -4.08,-8.16 0.578,-1.901 4.837,-0.123 5.761,-1.68 0.671,-1.182 0.744,-3.916 -0.24,-4.8 -1.655,-1.727 -8.16,1.201 -8.16,-1.68 0,-1.495 1.269,-1.092 2.64,-1.2 0.939,-0.075 3.351,0 4.08,0 39.945,-0.001 84.063,-0.001 121.921,-0.001 z m -118.081,10.08 c 1.855,1.375 5.087,1.422 7.2,0.239 0.75,-3.202 5.607,-5.636 9.36,-4.319 1.058,0.371 1.944,2.229 2.64,1.68 0,-1.76 0,-3.52 0,-5.28 -6.16,0.16 -12.96,-0.319 -18.72,0.24 1.302,2.082 1.071,5.845 -0.48,7.44 z m 9.361,3.6 c 3.576,2.607 8.758,-0.605 9.6,-3.84 -3.337,-2.677 -9.219,-0.13 -9.6,3.84 z"
   clip-rule="evenodd" />
		<path
   style="fill:#ffffff;fill-rule:evenodd"
   id="path55"
   d="m 5.882,182.738 c 2.56,0 5.12,0 7.68,0 1.705,1.248 1.87,5.133 -0.24,6 -1.581,0.099 -3.673,-0.313 -4.56,0.48 -1.225,3.543 1.754,6.326 3.6,8.4 2.111,2.371 4.604,4.521 6.24,6.96 -4.24,0 -8.48,0 -12.72,0 0,-7.279 0,-14.559 0,-21.84 z"
   clip-rule="evenodd" />
		<path
   style="fill:#ffffff;fill-rule:evenodd"
   id="path57"
   d="m 17.162,182.738 c 2.24,0 4.48,0 6.72,0 1.591,6.449 -2.474,11.233 -7.2,7.681 1.435,-1.839 1.404,-5.276 0.48,-7.681 z"
   clip-rule="evenodd" />
		<path
   style="fill:#ffffff;fill-rule:evenodd"
   id="path59"
   d="m 46.683,204.579 c -6.64,0 -13.28,0 -19.92,0 0.16,-7.2 -0.32,-15.04 0.24,-21.841 2.48,0 4.96,0 7.44,0 -1.375,8.507 2.391,14.125 9.84,12.24 -0.197,4.197 -0.311,8.311 2.4,9.601 z"
   clip-rule="evenodd" />
		<path
   style="fill:#ffffff;fill-rule:evenodd"
   id="path61"
   d="m 44.282,182.738 c 0.412,5.576 0.129,11.345 -4.56,10.561 -3.603,-0.603 -2.069,-6.237 -2.4,-10.561 2.321,0 4.64,0 6.96,0 z"
   clip-rule="evenodd" />
		<path
   style="fill:#ffffff;fill-rule:evenodd"
   id="path63"
   d="m 57.723,204.579 c -3.52,0 -7.04,0 -10.56,0 0,-3.841 0,-7.681 0,-11.521 0.82,-1.18 2.099,-1.901 3.84,-2.16 0,-1.04 0,-2.08 0,-3.12 -1.838,-0.394 -3.113,1.04 -3.84,0.96 0,-2 0,-4 0,-6 4.16,0.16 8.959,-0.319 12.72,0.24 -0.158,1.922 0.318,4.478 -0.24,6 -8.989,-2.332 -11.448,8.934 -6.24,13.44 1.237,1.071 2.668,1.316 4.32,2.161 z"
   clip-rule="evenodd" />
		<path
   style="fill:#ffffff;fill-rule:evenodd"
   id="path65"
   d="m 85.803,204.579 c -8.16,0 -16.32,0 -24.48,0 1.951,-0.85 4.474,-1.127 5.52,-2.881 -0.554,-0.886 -0.934,-1.946 -1.92,-2.399 -3.21,2.632 -11.619,3.973 -12.24,-1.2 -0.548,-4.56 4.823,-6.35 10.32,-5.52 0.159,-3.201 -0.319,-7.04 0.24,-9.841 6.56,0.16 13.76,-0.319 19.92,0.24 0,1.84 0,3.68 0,5.521 -2.521,-3.891 -10.435,-2.598 -11.76,1.199 -2.148,6.155 6.52,10.434 11.76,6.24 -0.485,4.246 0.291,7.23 2.64,8.641 z"
   clip-rule="evenodd" />
		<path
   style="fill:#ffffff;fill-rule:evenodd"
   id="path67"
   d="m 108.123,204.579 c -7.36,0 -14.72,0 -22.08,0 0,-7.28 0,-14.561 0,-21.841 3.2,0 6.4,0 9.6,0 3.389,1.801 1.914,8.314 -2.64,7.681 -0.849,7.224 8.926,9.599 12.72,5.76 -0.372,3.971 0.083,7.117 2.4,8.4 z"
   clip-rule="evenodd" />
		<path
   style="fill:#ffffff;fill-rule:evenodd"
   id="path69"
   d="m 99.243,182.738 c 2.16,0 4.32,0 6.48,0 0.444,5.813 -0.374,12.666 -5.04,13.44 -2.142,0.355 -4.669,-0.727 -5.28,-3.12 3.967,-0.732 6.168,-6.215 3.84,-10.32 z"
   clip-rule="evenodd" />
		<path
   style="fill:#ffffff;fill-rule:evenodd"
   id="path71"
   d="m 125.883,204.579 c -5.76,0 -11.521,0 -17.28,0 0,-7.28 0,-14.561 0,-21.841 4.174,0.146 8.941,-0.301 12.72,0.24 1.346,1.521 1.214,5.013 -0.72,5.76 -1.514,0.007 -3.135,-0.095 -4.32,0.24 -1.865,3.576 1.524,6.295 3.36,8.4 2.157,2.475 4.591,4.813 6.24,7.201 z"
   clip-rule="evenodd" />
		<path
   style="fill:#ffffff;fill-rule:evenodd"
   id="path73"
   d="m 156.843,182.979 c 5.76,-0.56 12.56,-0.08 18.72,-0.24 0,1.761 0,3.521 0,5.28 -0.695,0.549 -1.582,-1.309 -2.64,-1.68 -3.753,-1.316 -8.61,1.117 -9.36,4.319 -2.113,1.183 -5.345,1.136 -7.2,-0.239 1.55,-1.595 1.781,-5.358 0.48,-7.44 z"
   clip-rule="evenodd" />
		<path
   style="fill:#ffffff;fill-rule:evenodd"
   id="path75"
   d="m 193.083,204.579 c -4.88,0 -9.761,0 -14.641,0 0,-7.28 0,-14.561 0,-21.841 6.88,0 13.761,0 20.641,0 -0.157,1.363 0.315,3.356 -0.24,4.32 -7.791,-0.573 -15.018,-0.153 -13.44,7.44 0.84,4.047 6.044,6.481 7.68,10.081 z"
   clip-rule="evenodd" />
		<path
   style="fill:#ffffff;fill-rule:evenodd"
   id="path77"
   d="m 235.563,204.579 c -11.2,0 -22.399,0 -33.6,0 0,-7.28 0,-14.561 0,-21.841 10.32,0.16 21.279,-0.319 31.2,0.24 0,2 0,4 0,6 -1.524,-4.081 -10.189,-4.19 -11.761,-0.72 -4.05,0.35 -9.657,-0.857 -12.239,0.96 -0.018,3.255 1.32,6.914 4.08,8.16 1.025,-1.135 0.228,-4.092 0.479,-6 2.72,0 5.44,0 8.16,0 0.153,-0.887 -0.311,-2.391 0.24,-2.88 0.303,0.736 0.363,1.716 1.199,1.92 2.445,-2.658 7.914,-3.209 9.12,0.96 -2.901,1.578 -6.204,2.756 -8.399,5.04 0.378,0.662 0.669,1.41 0.96,2.16 2.955,-0.966 5.768,-3.352 8.16,-4.08 -0.126,4.287 -0.451,8.773 2.401,10.081 z"
   clip-rule="evenodd" />
		<path
   style="fill:#ffffff;fill-rule:evenodd"
   id="path79"
   d="m 250.442,204.579 c -4.8,0 -9.6,0 -14.399,0 0,-7.28 0,-14.561 0,-21.841 6.8,0 13.6,0 20.399,0 -0.156,1.363 0.316,3.356 -0.239,4.32 -7.683,-0.509 -14.335,-0.212 -13.44,6.72 0.593,4.602 6.057,6.921 7.679,10.801 z"
   clip-rule="evenodd" />
		<path
   style="fill:#ffffff;fill-rule:evenodd"
   id="path81"
   d="m 269.163,204.579 c -3.2,0 -6.4,0 -9.601,0 0.16,-7.2 -0.319,-15.04 0.24,-21.841 2.24,0 4.48,0 6.72,0 0,6.32 0,12.641 0,18.96 0.738,1.104 1.904,1.778 2.641,2.881 z"
   clip-rule="evenodd" />
		<path
   style="fill:#ffffff;fill-rule:evenodd"
   id="path83"
   d="m 274.443,182.738 c 0,7.28 0,14.561 0,21.841 -1.601,0 -3.2,0 -4.801,0 0.16,-7.2 -0.319,-15.04 0.24,-21.841 1.521,0 3.041,0 4.561,0 z"
   clip-rule="evenodd" />
		<path
   style="fill:#ffffff;fill-rule:evenodd"
   id="path85"
   d="m 82.922,190.179 c -0.833,3.244 -6.05,6.42 -9.6,3.84 0.303,-4.05 6.261,-6.52 9.6,-3.84 z"
   clip-rule="evenodd" />
		<path
   style="fill:#ffffff;fill-rule:evenodd"
   id="path87"
   d="m 175.322,190.179 c -0.842,3.234 -6.023,6.447 -9.6,3.84 0.382,-3.97 6.264,-6.517 9.6,-3.84 z"
   clip-rule="evenodd" />
		<path
   style="fill:#ffffff;fill-rule:evenodd"
   id="path89"
   d="m 201.723,204.579 c -2.8,0 -5.6,0 -8.4,0 1.92,-2.019 -5.379,-6.188 -5.76,-10.32 -0.522,-5.68 6.417,-4.41 11.521,-4.08 0.386,5.293 -1.459,12.817 2.639,14.4 z"
   clip-rule="evenodd" />
		<path
   style="fill:#ffffff;fill-rule:evenodd"
   id="path91"
   d="m 259.083,204.579 c -2.72,0 -5.44,0 -8.16,0 1.021,-1.212 -1.662,-3.738 -2.88,-5.28 -1.354,-1.714 -3.166,-3.501 -3.12,-5.521 0.104,-4.593 5.312,-3.946 11.52,-3.84 0.317,5.443 -1.338,12.858 2.64,14.641 z"
   clip-rule="evenodd" />
		<path
   style="fill:#ffffff;fill-rule:evenodd"
   id="path93"
   d="m 26.522,204.579 c -2.48,0 -4.96,0 -7.44,0 1.027,-2.53 -6.438,-7.181 -6.24,-10.08 0.528,-1.072 1.611,-1.59 2.4,-2.4 1.261,2.236 6.532,2.163 8.64,1.44 10e-4,4.559 -0.757,9.878 2.64,11.04 z"
   clip-rule="evenodd" />
		<path
   style="fill:#ffffff;fill-rule:evenodd"
   id="path95"
   d="m 178.203,204.579 c -6.4,0 -12.801,0 -19.2,0 1.023,-1.3 -1.937,-3.648 -3.12,-5.04 -1.62,-1.906 -3.129,-3.539 -3.36,-5.521 1.356,-0.163 1.637,-1.403 2.641,-1.92 1.211,2.165 6.689,2.622 8.88,0.96 0.624,4.92 7.844,5.627 11.52,2.88 -0.486,4.246 0.29,7.23 2.639,8.641 z"
   clip-rule="evenodd" />
	</g>
</svg>